<?xml version="1.0" encoding="UTF-8" standalone="no"?>
<svg width="1008px" height="651px" viewBox="0 0 1008 651" version="1.1" xmlns="http://www.w3.org/2000/svg" xmlns:xlink="http://www.w3.org/1999/xlink">
    <!-- Generator: Sketch 39.1 (31720) - http://www.bohemiancoding.com/sketch -->
    <title>Slice 1</title>
    <desc>Created with Sketch.</desc>
    <defs></defs>
    <g id="Page-1" stroke="none" stroke-width="1" fill="none" fill-rule="evenodd">
        <path d="M798.251343,265.496959 C585.705986,390.854499 389.383942,508.942717 176.10149,633.04223 L176.10149,633.04223 L176.10149,633.04223" id="MILE-1" stroke="#000000" stroke-width="7"></path>
        <path
            d="M176.10149,633.04223 C170.685902,636.193313 148.997532,646.258083 142.7643,646.895524 C136.153938,647.571527 129.425587,646.976705 122.848585,646.029693 C111.334837,644.371848 99.8681165,642.163513 88.6454934,639.103042 C82.3369028,637.382658 76.148452,634.970911 70.4615706,631.74348 C65.3648616,628.850991 60.7207292,625.094316 56.607157,620.920589 C50.8481916,615.077404 45.8648074,608.493775 41.0209354,601.872312 C34.451427,592.891938 27.849445,583.868874 22.404066,574.165716 C16.5588933,563.750159 10.7517433,553.115879 7.25079824,541.69705 C4.61154154,533.088728 3.48587459,523.830066 4.22015041,514.856291 C4.81559325,507.579283 7.04771909,500.177017 9.94245878,493.473944 C12.5542549,487.426067 16.181733,481.58005 20.6722652,476.759723 C26.2410807,470.781921 33.1129552,465.771059 40.5879888,462.473517 C48.1499735,459.137619 56.5825641,457.768908 64.8332144,457.278527 C97.9754279,455.308694 131.21248,454.813072 164.411828,455.113947 C179.03288,455.246455 193.534883,457.878534 208.139828,458.577277 C223.710904,459.322247 239.325351,460.143844 254.898481,459.443107"
            id="MILE-2"
            stroke="#000000"
            stroke-width="7"></path>
        <path
            d="M254.898481,459.443107 C268.256677,458.842035 281.653174,457.473903 294.729925,454.681036 C311.479665,451.103712 328.332381,447.114979 344.086284,440.394823 C360.024215,433.596161 374.200582,423.243178 389.113134,414.419895 C422.980977,394.381367 455.898958,372.696464 490.423545,353.811721 C497.470659,349.95699 505.463303,347.869265 513.369924,346.452159 C520.904083,345.101804 528.664334,345.399712 536.316295,345.586328 C546.441197,345.83326 556.495289,347.663599 566.622831,347.750901 C573.286205,347.808321 580.112648,347.783078 586.538554,346.01924 C595.017555,343.691856 603.108692,339.918927 610.78378,335.629268 C636.212032,321.417242 661.996277,307.560265 685.684219,290.606055 C689.936502,287.56256 691.480348,281.742357 693.044376,276.752761 C694.564916,271.901895 695.184844,266.667827 694.776176,261.600718 C694.446013,257.507014 692.862557,253.508663 690.879621,249.911996 C686.609038,242.16598 680.235593,235.683296 676.159307,227.833309 C672.392016,220.578382 668.638742,212.983744 667.500295,204.888784 C665.992499,194.167539 666.802104,183.133305 668.366196,172.420125 C669.712091,163.201492 672.108707,153.969216 676.159307,145.579359 C680.302156,136.998439 685.630934,128.688312 692.611422,122.201923"
            id="MILE-3"
            stroke="#000000"
            stroke-width="7"></path>
        <path
            d="M692.611422,122.201923 C700.20904,115.142079 710.106271,111.051048 719.021401,105.751138 C773.463586,73.3860762 826.507227,38.4765091 882.676685,9.21097605 C892.144945,4.27780189 903.608231,4.25493713 914.282077,4.01598981 C923.17848,3.81683272 932.127054,5.49865035 940.692053,7.91222967 C948.153005,10.0146914 955.497869,13.0761294 961.906614,17.436371 C969.675939,22.7222922 976.679731,29.2598558 982.688221,36.484653"
            id="MILE-4"
            stroke="#000000"
            stroke-width="7"></path>
        <path
            d="M982.688221,36.484653 C988.195418,43.1066659 992.562568,50.7150835 996.109695,58.5633464 C999.40002,65.8435157 1001.71072,73.6295971 1003.03689,81.507864 C1004.18695,88.3399122 1004.27584,95.4066862 1003.4699,102.287809 C1002.3865,111.537589 1000.40105,120.742278 997.408562,129.561486 C994.878616,137.017581 991.803831,144.522115 987.017758,150.774349 C982.660045,156.467057 976.692245,160.904191 970.565615,164.627643 C913.69009,199.193689 855.57884,231.685666 798.251343,265.496959"
            id="MILE-5"
            stroke="#000000"
            stroke-width="7"></path>
    </g>
</svg>
